# Blender 4.4.3
# www.blender.org
mtllib SectorStraight.mtl
o Road_2
v -5.054374 -0.000002 -10.539820
v -5.054374 -0.000006 0.012235
v 5.054371 -0.000006 0.012235
v 5.054371 -0.000002 -10.539820
v 6.403525 -1.055211 0.060431
v 6.403525 -1.055208 -10.491625
v -6.306837 -1.055208 -10.539821
v -6.306837 -1.055211 0.012235
v -5.276029 -0.000006 0.012235
v 5.276026 -0.000002 -10.539820
v -5.276029 -0.000002 -10.539820
v 5.276026 -0.000006 0.012235
v -4.842007 -0.000006 0.012235
v 4.842005 -0.000002 -10.539820
v -4.842007 -0.000002 -10.539820
v 4.842005 -0.000006 0.012235
v -5.054374 -0.000002 -10.539820
v -5.054374 -0.000006 0.012235
v -4.842007 -0.000006 0.012235
v -4.842007 -0.000002 -10.539820
v 4.896248 0.039389 -5.559467
v -4.861124 0.039385 -5.499091
v -4.860495 0.039385 -5.120067
v 4.896877 0.039389 -5.180443
vn -0.3881 0.9216 -0.0000
vn -0.9227 -0.3854 -0.0000
vn -0.9205 -0.3907 -0.0000
vn 0.3637 0.9315 -0.0000
vn 0.3709 0.9287 -0.0000
vn 0.9217 -0.3880 -0.0000
vn 0.9379 -0.3470 -0.0000
vn -0.0000 1.0000 -0.0000
vt 0.816103 0.931761
vt 0.301608 0.962500
vt 0.286870 0.962500
vt 0.286870 0.962204
vt 0.301608 0.962204
vt 0.286870 0.976025
vt 0.301608 0.976025
vt 0.301608 0.976322
vt 0.286870 0.976322
s 1
usemtl Material.015
f 9/1/1 11/1/1 7/1/2 8/1/3
f 10/1/4 12/1/5 5/1/6 6/1/7
f 13/1/8 16/1/8 14/1/8 15/1/8
f 2/1/8 1/1/8 11/1/1 9/1/1
f 4/1/8 3/1/8 12/1/5 10/1/4
f 14/2/8 16/3/8 3/4/8 4/5/8
f 5/1/6 8/1/3 7/1/2 6/1/7
f 19/6/8 20/7/8 17/8/8 18/9/8
f 23/6/8 24/7/8 21/8/8 22/9/8
