# Blender 4.4.3
# www.blender.org
mtllib StartFinish.mtl
o Road_5
v 5.276021 -0.000002 -0.001738
v 6.403520 -1.055207 0.046459
v 6.403520 -1.055207 -1.008748
v 5.276021 -0.000002 -1.056942
v 5.276021 -0.000001 -3.167352
v 6.403520 -1.055206 -3.119157
v 6.403520 -1.055205 -4.174364
v 5.276021 0.000000 -4.222558
v 3.873599 -0.000001 -3.167352
v 4.842000 -0.000001 -3.167352
v 4.842000 0.000000 -4.222558
v 3.873599 0.000000 -4.222558
v -5.054377 -0.000001 -3.167352
v -5.054377 0.000000 -4.222558
v -5.276031 0.000000 -4.222558
v -5.276031 -0.000001 -3.167352
v 5.054367 -0.000002 -1.056942
v 5.054367 -0.000002 -0.001738
v -4.842010 -0.000001 -3.167352
v -4.842010 0.000000 -4.222558
v 4.842000 -0.000002 -1.056942
v 4.842000 -0.000002 -0.001738
v 5.054367 -0.000001 -3.167352
v 5.054367 0.000000 -4.222558
v 4.842000 -0.000001 -2.112147
v 5.054367 -0.000001 -2.112147
v -4.842010 -0.000002 -0.001738
v -4.842010 -0.000002 -1.056942
v -5.054377 -0.000002 -1.056942
v -5.054377 -0.000002 -0.001738
v -4.842010 -0.000001 -2.112147
v -5.054377 -0.000001 -2.112147
v 5.276021 -0.000001 -2.112147
v -5.276031 -0.000002 -1.056942
v -5.276031 -0.000002 -0.001738
v -5.276031 -0.000001 -2.112147
v 3.873599 -0.000002 -0.001738
v 3.873599 -0.000002 -1.056942
v 3.873599 -0.000001 -2.112147
v 6.403520 -1.055206 -2.063953
v -6.306840 -1.055207 -1.056944
v -6.306840 -1.055207 -0.001738
v -6.306840 -1.055206 -2.112149
v -6.306840 -1.055206 -3.167353
v -3.873609 -0.000001 -2.112147
v -3.873609 -0.000001 -3.167352
v -2.905208 -0.000001 -2.112147
v -2.905208 -0.000001 -3.167352
v -1.936807 -0.000001 -2.112147
v -1.936807 -0.000001 -3.167352
v -0.968406 -0.000001 -2.112147
v -0.968406 -0.000001 -3.167352
v -0.000005 -0.000001 -2.112147
v -0.000005 -0.000001 -3.167352
v 0.968396 -0.000001 -2.112147
v 0.968396 -0.000001 -3.167352
v 1.936797 -0.000001 -2.112147
v 1.936797 -0.000001 -3.167352
v 2.905198 -0.000001 -2.112147
v 2.905198 -0.000001 -3.167352
v -3.873609 -0.000002 -1.056942
v -2.905208 -0.000002 -1.056942
v -1.936807 -0.000002 -1.056942
v -0.968406 -0.000002 -1.056942
v -0.000005 -0.000002 -1.056942
v 0.968396 -0.000002 -1.056942
v 1.936797 -0.000002 -1.056942
v 2.905198 -0.000002 -1.056942
v -3.873609 -0.000002 -0.001738
v -2.905208 -0.000002 -0.001738
v -1.936807 -0.000002 -0.001738
v -0.968406 -0.000002 -0.001738
v -0.000005 -0.000002 -0.001738
v 0.968396 -0.000002 -0.001738
v 1.936797 -0.000002 -0.001738
v 2.905198 -0.000002 -0.001738
v -3.873609 0.000000 -4.222558
v -2.905208 0.000000 -4.222558
v -1.936807 0.000000 -4.222558
v -0.968406 0.000000 -4.222558
v -0.000005 0.000000 -4.222558
v 0.968396 0.000000 -4.222558
v 1.936797 0.000000 -4.222558
v 2.905198 0.000000 -4.222558
v -6.306840 -1.055205 -4.222558
vn 0.2852 0.7287 0.6226
vn 0.6091 0.6622 0.4366
vn 0.6833 0.7301 -0.0000
vn 0.3673 0.9301 -0.0000
vn 0.6233 0.6548 -0.4275
vn 0.2835 0.7112 -0.6433
vn -0.0000 1.0000 -0.0000
vn -0.3045 0.7092 -0.6358
vn -0.3881 0.9216 -0.0000
vn -0.2989 0.7231 0.6227
vn -0.7153 0.6988 -0.0000
vn -0.6349 0.6287 0.4491
vn -0.6412 0.6174 -0.4557
vt 0.816103 0.931761
vt 0.191301 0.960082
vt 0.191301 0.958729
vt 0.194985 0.958729
vt 0.194985 0.960082
vt 0.297923 0.976025
vt 0.301608 0.976025
vt 0.301608 0.976322
vt 0.297923 0.976322
vt 0.290555 0.962500
vt 0.286870 0.962500
vt 0.286870 0.962204
vt 0.290555 0.962204
vt 0.301608 0.962500
vt 0.297923 0.962500
vt 0.297923 0.962204
vt 0.301608 0.962204
vt 0.294239 0.962500
vt 0.294239 0.962204
vt 0.286870 0.976025
vt 0.290555 0.976025
vt 0.290555 0.976322
vt 0.286870 0.976322
vt 0.294239 0.976025
vt 0.294239 0.976322
vt 0.183932 0.960082
vt 0.183932 0.958729
vt 0.187617 0.958729
vt 0.187617 0.960082
vt 0.187617 0.972254
vt 0.187617 0.970902
vt 0.191301 0.970902
vt 0.191301 0.972254
vt 0.187617 0.969549
vt 0.187617 0.968197
vt 0.191301 0.968197
vt 0.191301 0.969549
vt 0.187617 0.966844
vt 0.187617 0.965492
vt 0.191301 0.965492
vt 0.191301 0.966844
vt 0.187617 0.964139
vt 0.187617 0.962787
vt 0.191301 0.962787
vt 0.191301 0.964139
vt 0.187617 0.961434
vt 0.191301 0.961434
vt 0.183932 0.970902
vt 0.183932 0.969549
vt 0.183932 0.968197
vt 0.183932 0.966844
vt 0.183932 0.965492
vt 0.183932 0.964139
vt 0.183932 0.962787
vt 0.183932 0.961434
vt 0.180248 0.972254
vt 0.180248 0.970902
vt 0.183932 0.972254
vt 0.180248 0.969549
vt 0.180248 0.968197
vt 0.180248 0.966844
vt 0.180248 0.965492
vt 0.180248 0.964139
vt 0.180248 0.962787
vt 0.180248 0.961434
vt 0.180248 0.960082
vt 0.194985 0.969549
vt 0.194985 0.970902
vt 0.194985 0.966844
vt 0.194985 0.968197
vt 0.194985 0.964139
vt 0.194985 0.965492
vt 0.194985 0.961434
vt 0.194985 0.962787
s 1
usemtl Material.007
f 1/1/1 2/1/2 3/1/3 4/1/4
f 5/1/4 6/1/3 7/1/5 8/1/6
f 9/2/7 10/3/7 11/4/7 12/5/7
f 13/1/7 14/1/7 15/1/8 16/1/9
f 17/1/7 18/1/7 1/1/1 4/1/4
f 19/6/7 20/7/7 14/8/7 13/9/7
f 21/10/7 22/11/7 18/12/7 17/13/7
f 11/14/7 10/15/7 23/16/7 24/17/7
f 10/15/7 25/18/7 26/19/7 23/16/7
f 25/18/7 21/10/7 17/13/7 26/19/7
f 27/20/7 28/21/7 29/22/7 30/23/7
f 28/21/7 31/24/7 32/25/7 29/22/7
f 31/24/7 19/6/7 13/9/7 32/25/7
f 24/1/7 23/1/7 5/1/4 8/1/6
f 23/1/7 26/1/7 33/1/4 5/1/4
f 26/1/7 17/1/7 4/1/4 33/1/4
f 30/1/7 29/1/7 34/1/9 35/1/10
f 29/1/7 32/1/7 36/1/9 34/1/9
f 32/1/7 13/1/7 16/1/9 36/1/9
f 37/1/7 22/1/7 21/1/7 38/1/7
f 38/26/7 21/27/7 25/28/7 39/29/7
f 39/1/7 25/1/7 10/1/7 9/1/7
f 33/1/4 40/1/3 6/1/3 5/1/4
f 4/1/4 3/1/3 40/1/3 33/1/4
f 34/1/9 41/1/11 42/1/12 35/1/10
f 36/1/9 43/1/11 41/1/11 34/1/9
f 16/1/9 44/1/11 43/1/11 36/1/9
f 31/30/7 45/31/7 46/32/7 19/33/7
f 45/1/7 47/1/7 48/1/7 46/1/7
f 47/34/7 49/35/7 50/36/7 48/37/7
f 49/1/7 51/1/7 52/1/7 50/1/7
f 51/38/7 53/39/7 54/40/7 52/41/7
f 53/1/7 55/1/7 56/1/7 54/1/7
f 55/42/7 57/43/7 58/44/7 56/45/7
f 57/1/7 59/1/7 60/1/7 58/1/7
f 59/46/7 39/29/7 9/2/7 60/47/7
f 28/1/7 61/1/7 45/1/7 31/1/7
f 61/48/7 62/49/7 47/34/7 45/31/7
f 62/1/7 63/1/7 49/1/7 47/1/7
f 63/50/7 64/51/7 51/38/7 49/35/7
f 64/1/7 65/1/7 53/1/7 51/1/7
f 65/52/7 66/53/7 55/42/7 53/39/7
f 66/1/7 67/1/7 57/1/7 55/1/7
f 67/54/7 68/55/7 59/46/7 57/43/7
f 68/1/7 38/1/7 39/1/7 59/1/7
f 27/56/7 69/57/7 61/48/7 28/58/7
f 69/1/7 70/1/7 62/1/7 61/1/7
f 70/59/7 71/60/7 63/50/7 62/49/7
f 71/1/7 72/1/7 64/1/7 63/1/7
f 72/61/7 73/62/7 65/52/7 64/51/7
f 73/1/7 74/1/7 66/1/7 65/1/7
f 74/63/7 75/64/7 67/54/7 66/53/7
f 75/1/7 76/1/7 68/1/7 67/1/7
f 76/65/7 37/66/7 38/26/7 68/55/7
f 19/1/7 46/1/7 77/1/7 20/1/7
f 46/32/7 48/37/7 78/67/7 77/68/7
f 48/1/7 50/1/7 79/1/7 78/1/7
f 50/36/7 52/41/7 80/69/7 79/70/7
f 52/1/7 54/1/7 81/1/7 80/1/7
f 54/40/7 56/45/7 82/71/7 81/72/7
f 56/1/7 58/1/7 83/1/7 82/1/7
f 58/44/7 60/47/7 84/73/7 83/74/7
f 60/1/7 9/1/7 12/1/7 84/1/7
f 15/1/8 85/1/13 44/1/11 16/1/9
